<mxfile host="app.diagrams.net" modified="2023-06-11T15:19:55.265Z" agent="Mozilla/5.0 (Windows NT 10.0; Win64; x64; rv:109.0) Gecko/20100101 Firefox/114.0" etag="vywUaTUsyyxlIyB2unTs" version="21.3.8" type="device">
  <diagram name="Page-1" id="gqL_k_n_ioXtpcnPL3fc">
    <mxGraphModel dx="2317" dy="737" grid="1" gridSize="10" guides="1" tooltips="1" connect="1" arrows="1" fold="1" page="1" pageScale="1" pageWidth="850" pageHeight="1100" math="0" shadow="0">
      <root>
        <mxCell id="0" />
        <mxCell id="1" parent="0" />
        <mxCell id="K68s5bXBRGEPoENQaCDu-1" value="role&amp;nbsp;" style="ellipse;whiteSpace=wrap;html=1;align=center;" parent="1" vertex="1">
          <mxGeometry x="-395" y="230" width="100" height="40" as="geometry" />
        </mxCell>
        <mxCell id="K68s5bXBRGEPoENQaCDu-2" value="Social media&amp;nbsp;" style="whiteSpace=wrap;html=1;align=center;" parent="1" vertex="1">
          <mxGeometry x="-260" y="20" width="100" height="40" as="geometry" />
        </mxCell>
        <mxCell id="K68s5bXBRGEPoENQaCDu-3" value="U_ID" style="ellipse;whiteSpace=wrap;html=1;align=center;fontStyle=4;" parent="1" vertex="1">
          <mxGeometry x="-530" y="250" width="100" height="40" as="geometry" />
        </mxCell>
        <mxCell id="K68s5bXBRGEPoENQaCDu-4" value="&amp;nbsp;full name" style="ellipse;whiteSpace=wrap;html=1;align=center;" parent="1" vertex="1">
          <mxGeometry x="-670" y="230" width="100" height="40" as="geometry" />
        </mxCell>
        <mxCell id="K68s5bXBRGEPoENQaCDu-5" value="password" style="ellipse;whiteSpace=wrap;html=1;align=center;" parent="1" vertex="1">
          <mxGeometry x="-830" y="120" width="100" height="40" as="geometry" />
        </mxCell>
        <mxCell id="K68s5bXBRGEPoENQaCDu-6" value="U_name" style="ellipse;whiteSpace=wrap;html=1;align=center;" parent="1" vertex="1">
          <mxGeometry x="-730" y="60" width="100" height="40" as="geometry" />
        </mxCell>
        <mxCell id="K68s5bXBRGEPoENQaCDu-17" value="user&amp;nbsp;" style="whiteSpace=wrap;html=1;align=center;" parent="1" vertex="1">
          <mxGeometry x="-490" y="130" width="100" height="40" as="geometry" />
        </mxCell>
        <mxCell id="K68s5bXBRGEPoENQaCDu-18" value="post&amp;nbsp;&amp;nbsp;" style="whiteSpace=wrap;html=1;align=center;" parent="1" vertex="1">
          <mxGeometry x="120" y="80" width="100" height="40" as="geometry" />
        </mxCell>
        <mxCell id="K68s5bXBRGEPoENQaCDu-26" value="postName&amp;nbsp;" style="ellipse;whiteSpace=wrap;html=1;align=center;" parent="1" vertex="1">
          <mxGeometry x="-70" y="230" width="100" height="40" as="geometry" />
        </mxCell>
        <mxCell id="K68s5bXBRGEPoENQaCDu-27" value="P_id" style="ellipse;whiteSpace=wrap;html=1;align=center;fontStyle=4;" parent="1" vertex="1">
          <mxGeometry x="50" y="230" width="100" height="40" as="geometry" />
        </mxCell>
        <mxCell id="K68s5bXBRGEPoENQaCDu-28" value="P_conntent" style="ellipse;whiteSpace=wrap;html=1;align=center;" parent="1" vertex="1">
          <mxGeometry x="210" y="190" width="100" height="40" as="geometry" />
        </mxCell>
        <mxCell id="K68s5bXBRGEPoENQaCDu-41" value="&lt;u&gt;C_id&lt;/u&gt;" style="ellipse;whiteSpace=wrap;html=1;align=center;fontStyle=4;" parent="1" vertex="1">
          <mxGeometry x="390" y="390" width="100" height="40" as="geometry" />
        </mxCell>
        <mxCell id="K68s5bXBRGEPoENQaCDu-42" value="C_content" style="ellipse;whiteSpace=wrap;html=1;align=center;" parent="1" vertex="1">
          <mxGeometry x="560" y="390" width="100" height="40" as="geometry" />
        </mxCell>
        <mxCell id="bWqxe8-dH5cdYYDnPD79-1" value="" style="endArrow=none;html=1;rounded=0;entryX=0.5;entryY=1;entryDx=0;entryDy=0;" parent="1" edge="1">
          <mxGeometry width="50" height="50" relative="1" as="geometry">
            <mxPoint x="443" y="389" as="sourcePoint" />
            <mxPoint x="510" y="320" as="targetPoint" />
          </mxGeometry>
        </mxCell>
        <mxCell id="bWqxe8-dH5cdYYDnPD79-2" value="" style="endArrow=none;html=1;rounded=0;entryX=1;entryY=1;entryDx=0;entryDy=0;exitX=0.5;exitY=0;exitDx=0;exitDy=0;" parent="1" source="K68s5bXBRGEPoENQaCDu-42" edge="1">
          <mxGeometry width="50" height="50" relative="1" as="geometry">
            <mxPoint x="450" y="390" as="sourcePoint" />
            <mxPoint x="545.3553390593424" y="314.142135623737" as="targetPoint" />
          </mxGeometry>
        </mxCell>
        <mxCell id="bWqxe8-dH5cdYYDnPD79-3" value="" style="endArrow=none;html=1;rounded=0;entryX=0.75;entryY=1;entryDx=0;entryDy=0;exitX=0.5;exitY=0;exitDx=0;exitDy=0;" parent="1" source="K68s5bXBRGEPoENQaCDu-28" target="K68s5bXBRGEPoENQaCDu-18" edge="1">
          <mxGeometry width="50" height="50" relative="1" as="geometry">
            <mxPoint x="250" y="220" as="sourcePoint" />
            <mxPoint x="300" y="170" as="targetPoint" />
          </mxGeometry>
        </mxCell>
        <mxCell id="bWqxe8-dH5cdYYDnPD79-4" value="" style="endArrow=none;html=1;rounded=0;entryX=0.25;entryY=1;entryDx=0;entryDy=0;exitX=0.5;exitY=0;exitDx=0;exitDy=0;" parent="1" source="K68s5bXBRGEPoENQaCDu-27" target="K68s5bXBRGEPoENQaCDu-18" edge="1">
          <mxGeometry width="50" height="50" relative="1" as="geometry">
            <mxPoint x="200" y="240" as="sourcePoint" />
            <mxPoint x="250" y="190" as="targetPoint" />
          </mxGeometry>
        </mxCell>
        <mxCell id="bWqxe8-dH5cdYYDnPD79-8" value="" style="endArrow=none;html=1;rounded=0;exitX=0.5;exitY=0;exitDx=0;exitDy=0;entryX=0;entryY=0.5;entryDx=0;entryDy=0;" parent="1" source="K68s5bXBRGEPoENQaCDu-26" target="K68s5bXBRGEPoENQaCDu-18" edge="1">
          <mxGeometry width="50" height="50" relative="1" as="geometry">
            <mxPoint x="200" y="250" as="sourcePoint" />
            <mxPoint x="250" y="200" as="targetPoint" />
          </mxGeometry>
        </mxCell>
        <mxCell id="bWqxe8-dH5cdYYDnPD79-9" value="" style="endArrow=none;html=1;rounded=0;entryX=-0.013;entryY=-0.003;entryDx=0;entryDy=0;exitX=1;exitY=0.5;exitDx=0;exitDy=0;entryPerimeter=0;" parent="1" source="K68s5bXBRGEPoENQaCDu-6" target="K68s5bXBRGEPoENQaCDu-17" edge="1">
          <mxGeometry width="50" height="50" relative="1" as="geometry">
            <mxPoint x="-560" y="240" as="sourcePoint" />
            <mxPoint x="-510" y="190" as="targetPoint" />
          </mxGeometry>
        </mxCell>
        <mxCell id="bWqxe8-dH5cdYYDnPD79-10" value="" style="endArrow=none;html=1;rounded=0;exitX=1;exitY=0.5;exitDx=0;exitDy=0;entryX=0;entryY=0.75;entryDx=0;entryDy=0;" parent="1" source="K68s5bXBRGEPoENQaCDu-5" target="K68s5bXBRGEPoENQaCDu-17" edge="1">
          <mxGeometry width="50" height="50" relative="1" as="geometry">
            <mxPoint x="-520" y="220" as="sourcePoint" />
            <mxPoint x="-470" y="170" as="targetPoint" />
          </mxGeometry>
        </mxCell>
        <mxCell id="bWqxe8-dH5cdYYDnPD79-11" value="" style="endArrow=none;html=1;rounded=0;" parent="1" source="K68s5bXBRGEPoENQaCDu-4" edge="1">
          <mxGeometry width="50" height="50" relative="1" as="geometry">
            <mxPoint x="-520" y="220" as="sourcePoint" />
            <mxPoint x="-470" y="170" as="targetPoint" />
          </mxGeometry>
        </mxCell>
        <mxCell id="bWqxe8-dH5cdYYDnPD79-12" value="" style="endArrow=none;html=1;rounded=0;entryX=0.5;entryY=1;entryDx=0;entryDy=0;exitX=0.5;exitY=0;exitDx=0;exitDy=0;" parent="1" source="K68s5bXBRGEPoENQaCDu-3" target="K68s5bXBRGEPoENQaCDu-17" edge="1">
          <mxGeometry width="50" height="50" relative="1" as="geometry">
            <mxPoint x="-520" y="270" as="sourcePoint" />
            <mxPoint x="-470" y="220" as="targetPoint" />
          </mxGeometry>
        </mxCell>
        <mxCell id="bWqxe8-dH5cdYYDnPD79-13" value="" style="endArrow=none;html=1;rounded=0;dashed=1;dashPattern=1 2;exitX=1;exitY=0.5;exitDx=0;exitDy=0;entryX=0;entryY=0;entryDx=0;entryDy=0;" parent="1" source="bWqxe8-dH5cdYYDnPD79-25" target="FwuXOQPDWZtJsFWX8OQS-28" edge="1">
          <mxGeometry relative="1" as="geometry">
            <mxPoint x="400" y="180" as="sourcePoint" />
            <mxPoint x="490" y="240" as="targetPoint" />
          </mxGeometry>
        </mxCell>
        <mxCell id="bWqxe8-dH5cdYYDnPD79-15" value="" style="endArrow=none;html=1;rounded=0;exitX=1;exitY=1;exitDx=0;exitDy=0;entryX=0.5;entryY=0;entryDx=0;entryDy=0;" parent="1" source="K68s5bXBRGEPoENQaCDu-17" target="K68s5bXBRGEPoENQaCDu-1" edge="1">
          <mxGeometry relative="1" as="geometry">
            <mxPoint x="-430" y="210" as="sourcePoint" />
            <mxPoint x="-270" y="210" as="targetPoint" />
          </mxGeometry>
        </mxCell>
        <mxCell id="bWqxe8-dH5cdYYDnPD79-17" value="" style="endArrow=none;html=1;rounded=0;exitX=0.934;exitY=0.006;exitDx=0;exitDy=0;exitPerimeter=0;entryX=0;entryY=0.5;entryDx=0;entryDy=0;" parent="1" source="K68s5bXBRGEPoENQaCDu-17" target="K68s5bXBRGEPoENQaCDu-2" edge="1">
          <mxGeometry relative="1" as="geometry">
            <mxPoint x="-280" y="210" as="sourcePoint" />
            <mxPoint x="-120" y="210" as="targetPoint" />
            <Array as="points">
              <mxPoint x="-400" y="40" />
            </Array>
          </mxGeometry>
        </mxCell>
        <mxCell id="bWqxe8-dH5cdYYDnPD79-19" value="" style="endArrow=none;html=1;rounded=0;exitX=1;exitY=0.5;exitDx=0;exitDy=0;entryX=0.5;entryY=0;entryDx=0;entryDy=0;" parent="1" source="K68s5bXBRGEPoENQaCDu-2" target="K68s5bXBRGEPoENQaCDu-18" edge="1">
          <mxGeometry relative="1" as="geometry">
            <mxPoint x="-280" y="210" as="sourcePoint" />
            <mxPoint x="-120" y="210" as="targetPoint" />
            <Array as="points">
              <mxPoint x="160" y="50" />
            </Array>
          </mxGeometry>
        </mxCell>
        <mxCell id="bWqxe8-dH5cdYYDnPD79-20" value="admin" style="ellipse;whiteSpace=wrap;html=1;align=center;" parent="1" vertex="1">
          <mxGeometry x="-260" y="310" width="100" height="40" as="geometry" />
        </mxCell>
        <mxCell id="bWqxe8-dH5cdYYDnPD79-21" value="member" style="ellipse;whiteSpace=wrap;html=1;align=center;" parent="1" vertex="1">
          <mxGeometry x="-395" y="320" width="100" height="40" as="geometry" />
        </mxCell>
        <mxCell id="bWqxe8-dH5cdYYDnPD79-22" value="" style="endArrow=none;html=1;rounded=0;exitX=1;exitY=0.5;exitDx=0;exitDy=0;entryX=0.448;entryY=-0.006;entryDx=0;entryDy=0;entryPerimeter=0;" parent="1" source="K68s5bXBRGEPoENQaCDu-1" target="bWqxe8-dH5cdYYDnPD79-20" edge="1">
          <mxGeometry relative="1" as="geometry">
            <mxPoint x="-340" y="290" as="sourcePoint" />
            <mxPoint x="-180" y="290" as="targetPoint" />
          </mxGeometry>
        </mxCell>
        <mxCell id="bWqxe8-dH5cdYYDnPD79-23" value="" style="endArrow=none;html=1;rounded=0;exitX=0.441;exitY=1.054;exitDx=0;exitDy=0;exitPerimeter=0;entryX=0.47;entryY=0.042;entryDx=0;entryDy=0;entryPerimeter=0;" parent="1" source="K68s5bXBRGEPoENQaCDu-1" target="bWqxe8-dH5cdYYDnPD79-21" edge="1">
          <mxGeometry relative="1" as="geometry">
            <mxPoint x="-340" y="290" as="sourcePoint" />
            <mxPoint x="-180" y="290" as="targetPoint" />
          </mxGeometry>
        </mxCell>
        <mxCell id="bWqxe8-dH5cdYYDnPD79-25" value="wright" style="shape=rhombus;perimeter=rhombusPerimeter;whiteSpace=wrap;html=1;align=center;" parent="1" vertex="1">
          <mxGeometry x="300" y="120" width="120" height="60" as="geometry" />
        </mxCell>
        <mxCell id="bWqxe8-dH5cdYYDnPD79-27" value="" style="endArrow=none;html=1;rounded=0;exitX=1;exitY=0.5;exitDx=0;exitDy=0;entryX=0;entryY=0.5;entryDx=0;entryDy=0;" parent="1" source="K68s5bXBRGEPoENQaCDu-18" target="bWqxe8-dH5cdYYDnPD79-25" edge="1">
          <mxGeometry relative="1" as="geometry">
            <mxPoint x="240" y="170" as="sourcePoint" />
            <mxPoint x="400" y="170" as="targetPoint" />
          </mxGeometry>
        </mxCell>
        <mxCell id="bWqxe8-dH5cdYYDnPD79-36" value="N" style="resizable=0;html=1;whiteSpace=wrap;align=right;verticalAlign=bottom;" parent="1" connectable="0" vertex="1">
          <mxGeometry x="470" y="290" as="geometry" />
        </mxCell>
        <mxCell id="bWqxe8-dH5cdYYDnPD79-37" value="1" style="resizable=0;html=1;whiteSpace=wrap;align=right;verticalAlign=bottom;" parent="1" connectable="0" vertex="1">
          <mxGeometry x="230" y="100" as="geometry" />
        </mxCell>
        <mxCell id="bWqxe8-dH5cdYYDnPD79-38" value="has" style="shape=rhombus;perimeter=rhombusPerimeter;whiteSpace=wrap;html=1;align=center;" parent="1" vertex="1">
          <mxGeometry x="-240" y="120" width="120" height="60" as="geometry" />
        </mxCell>
        <mxCell id="bWqxe8-dH5cdYYDnPD79-39" value="" style="endArrow=none;html=1;rounded=0;exitX=1;exitY=0.5;exitDx=0;exitDy=0;entryX=0;entryY=0.5;entryDx=0;entryDy=0;" parent="1" source="K68s5bXBRGEPoENQaCDu-17" target="bWqxe8-dH5cdYYDnPD79-38" edge="1">
          <mxGeometry relative="1" as="geometry">
            <mxPoint x="-190" y="180" as="sourcePoint" />
            <mxPoint x="-30" y="180" as="targetPoint" />
          </mxGeometry>
        </mxCell>
        <mxCell id="bWqxe8-dH5cdYYDnPD79-40" value="" style="endArrow=none;html=1;rounded=0;dashed=1;dashPattern=1 2;entryX=0;entryY=0.25;entryDx=0;entryDy=0;exitX=1;exitY=0.5;exitDx=0;exitDy=0;" parent="1" source="bWqxe8-dH5cdYYDnPD79-38" target="K68s5bXBRGEPoENQaCDu-18" edge="1">
          <mxGeometry relative="1" as="geometry">
            <mxPoint x="-190" y="180" as="sourcePoint" />
            <mxPoint x="-30" y="180" as="targetPoint" />
          </mxGeometry>
        </mxCell>
        <mxCell id="bWqxe8-dH5cdYYDnPD79-41" value="N" style="resizable=0;html=1;whiteSpace=wrap;align=right;verticalAlign=bottom;rotation=-15;" parent="bWqxe8-dH5cdYYDnPD79-40" connectable="0" vertex="1">
          <mxGeometry x="1" relative="1" as="geometry">
            <mxPoint x="-10" as="offset" />
          </mxGeometry>
        </mxCell>
        <mxCell id="bWqxe8-dH5cdYYDnPD79-43" value="1" style="resizable=0;html=1;whiteSpace=wrap;align=right;verticalAlign=bottom;" parent="1" connectable="0" vertex="1">
          <mxGeometry x="-380" y="150" as="geometry" />
        </mxCell>
        <mxCell id="bWqxe8-dH5cdYYDnPD79-44" value="has" style="shape=rhombus;perimeter=rhombusPerimeter;whiteSpace=wrap;html=1;align=center;" parent="1" vertex="1">
          <mxGeometry x="-20" y="370" width="120" height="60" as="geometry" />
        </mxCell>
        <mxCell id="bWqxe8-dH5cdYYDnPD79-45" value="" style="endArrow=none;html=1;rounded=0;dashed=1;dashPattern=1 2;entryX=0;entryY=0.75;entryDx=0;entryDy=0;" parent="1" target="FwuXOQPDWZtJsFWX8OQS-28" edge="1">
          <mxGeometry relative="1" as="geometry">
            <mxPoint x="100" y="399.5" as="sourcePoint" />
            <mxPoint x="420" y="320" as="targetPoint" />
          </mxGeometry>
        </mxCell>
        <mxCell id="bWqxe8-dH5cdYYDnPD79-46" value="N" style="resizable=0;html=1;whiteSpace=wrap;align=right;verticalAlign=bottom;" parent="bWqxe8-dH5cdYYDnPD79-45" connectable="0" vertex="1">
          <mxGeometry x="1" relative="1" as="geometry">
            <mxPoint x="-15" y="6" as="offset" />
          </mxGeometry>
        </mxCell>
        <mxCell id="bWqxe8-dH5cdYYDnPD79-47" value="" style="endArrow=none;html=1;rounded=0;entryX=0;entryY=0;entryDx=0;entryDy=0;exitX=1;exitY=0.75;exitDx=0;exitDy=0;" parent="1" source="K68s5bXBRGEPoENQaCDu-17" target="bWqxe8-dH5cdYYDnPD79-44" edge="1">
          <mxGeometry relative="1" as="geometry">
            <mxPoint x="-270" y="300" as="sourcePoint" />
            <mxPoint x="-110" y="300" as="targetPoint" />
          </mxGeometry>
        </mxCell>
        <mxCell id="bWqxe8-dH5cdYYDnPD79-48" value="1" style="resizable=0;html=1;whiteSpace=wrap;align=right;verticalAlign=bottom;rotation=20;" parent="1" connectable="0" vertex="1">
          <mxGeometry x="-370" y="170" as="geometry" />
        </mxCell>
        <mxCell id="FwuXOQPDWZtJsFWX8OQS-1" value="" style="shape=table;startSize=0;container=1;collapsible=0;childLayout=tableLayout;" vertex="1" parent="1">
          <mxGeometry x="-800" y="420" width="300" height="40" as="geometry" />
        </mxCell>
        <mxCell id="FwuXOQPDWZtJsFWX8OQS-2" value="" style="shape=tableRow;horizontal=0;startSize=0;swimlaneHead=0;swimlaneBody=0;strokeColor=inherit;top=0;left=0;bottom=0;right=0;collapsible=0;dropTarget=0;fillColor=none;points=[[0,0.5],[1,0.5]];portConstraint=eastwest;" vertex="1" parent="FwuXOQPDWZtJsFWX8OQS-1">
          <mxGeometry width="300" height="40" as="geometry" />
        </mxCell>
        <mxCell id="FwuXOQPDWZtJsFWX8OQS-3" value="&#xa;&amp;nbsp;full name&#xa;&#xa;" style="shape=partialRectangle;html=1;whiteSpace=wrap;connectable=0;strokeColor=inherit;overflow=hidden;fillColor=none;top=0;left=0;bottom=0;right=0;pointerEvents=1;" vertex="1" parent="FwuXOQPDWZtJsFWX8OQS-2">
          <mxGeometry width="60" height="40" as="geometry">
            <mxRectangle width="60" height="40" as="alternateBounds" />
          </mxGeometry>
        </mxCell>
        <mxCell id="FwuXOQPDWZtJsFWX8OQS-4" value="&#xa;password&#xa;&#xa;" style="shape=partialRectangle;html=1;whiteSpace=wrap;connectable=0;strokeColor=inherit;overflow=hidden;fillColor=none;top=0;left=0;bottom=0;right=0;pointerEvents=1;" vertex="1" parent="FwuXOQPDWZtJsFWX8OQS-2">
          <mxGeometry x="60" width="60" height="40" as="geometry">
            <mxRectangle width="60" height="40" as="alternateBounds" />
          </mxGeometry>
        </mxCell>
        <mxCell id="FwuXOQPDWZtJsFWX8OQS-5" value="&#xa;&amp;nbsp;full name&#xa;&#xa;" style="shape=partialRectangle;html=1;whiteSpace=wrap;connectable=0;strokeColor=inherit;overflow=hidden;fillColor=none;top=0;left=0;bottom=0;right=0;pointerEvents=1;" vertex="1" parent="FwuXOQPDWZtJsFWX8OQS-2">
          <mxGeometry x="120" width="60" height="40" as="geometry">
            <mxRectangle width="60" height="40" as="alternateBounds" />
          </mxGeometry>
        </mxCell>
        <mxCell id="FwuXOQPDWZtJsFWX8OQS-6" value="&#xa;U_ID&#xa;&#xa;" style="shape=partialRectangle;html=1;whiteSpace=wrap;connectable=0;strokeColor=inherit;overflow=hidden;fillColor=none;top=0;left=0;bottom=0;right=0;pointerEvents=1;" vertex="1" parent="FwuXOQPDWZtJsFWX8OQS-2">
          <mxGeometry x="180" width="60" height="40" as="geometry">
            <mxRectangle width="60" height="40" as="alternateBounds" />
          </mxGeometry>
        </mxCell>
        <mxCell id="FwuXOQPDWZtJsFWX8OQS-7" value="&lt;br&gt;member&lt;br&gt;&lt;br&gt;" style="shape=partialRectangle;html=1;whiteSpace=wrap;connectable=0;strokeColor=inherit;overflow=hidden;fillColor=none;top=0;left=0;bottom=0;right=0;pointerEvents=1;" vertex="1" parent="FwuXOQPDWZtJsFWX8OQS-2">
          <mxGeometry x="240" width="60" height="40" as="geometry">
            <mxRectangle width="60" height="40" as="alternateBounds" />
          </mxGeometry>
        </mxCell>
        <mxCell id="FwuXOQPDWZtJsFWX8OQS-15" value="" style="shape=table;startSize=0;container=1;collapsible=0;childLayout=tableLayout;" vertex="1" parent="1">
          <mxGeometry x="-500" y="420" width="60" height="40" as="geometry" />
        </mxCell>
        <mxCell id="FwuXOQPDWZtJsFWX8OQS-16" value="" style="shape=tableRow;horizontal=0;startSize=0;swimlaneHead=0;swimlaneBody=0;strokeColor=inherit;top=0;left=0;bottom=0;right=0;collapsible=0;dropTarget=0;fillColor=none;points=[[0,0.5],[1,0.5]];portConstraint=eastwest;" vertex="1" parent="FwuXOQPDWZtJsFWX8OQS-15">
          <mxGeometry width="60" height="40" as="geometry" />
        </mxCell>
        <mxCell id="FwuXOQPDWZtJsFWX8OQS-17" value="&#xa;admin&#xa;&#xa;" style="shape=partialRectangle;html=1;whiteSpace=wrap;connectable=0;strokeColor=inherit;overflow=hidden;fillColor=none;top=0;left=0;bottom=0;right=0;pointerEvents=1;" vertex="1" parent="FwuXOQPDWZtJsFWX8OQS-16">
          <mxGeometry width="60" height="40" as="geometry">
            <mxRectangle width="60" height="40" as="alternateBounds" />
          </mxGeometry>
        </mxCell>
        <mxCell id="FwuXOQPDWZtJsFWX8OQS-18" value="" style="shape=table;startSize=0;container=1;collapsible=0;childLayout=tableLayout;" vertex="1" parent="1">
          <mxGeometry x="-800" y="500" width="280" height="40" as="geometry" />
        </mxCell>
        <mxCell id="FwuXOQPDWZtJsFWX8OQS-19" value="" style="shape=tableRow;horizontal=0;startSize=0;swimlaneHead=0;swimlaneBody=0;strokeColor=inherit;top=0;left=0;bottom=0;right=0;collapsible=0;dropTarget=0;fillColor=none;points=[[0,0.5],[1,0.5]];portConstraint=eastwest;" vertex="1" parent="FwuXOQPDWZtJsFWX8OQS-18">
          <mxGeometry width="280" height="40" as="geometry" />
        </mxCell>
        <mxCell id="FwuXOQPDWZtJsFWX8OQS-33" value="&lt;u&gt;C_id&lt;/u&gt;" style="shape=partialRectangle;html=1;whiteSpace=wrap;connectable=0;strokeColor=inherit;overflow=hidden;fillColor=none;top=0;left=0;bottom=0;right=0;pointerEvents=1;" vertex="1" parent="FwuXOQPDWZtJsFWX8OQS-19">
          <mxGeometry width="70" height="40" as="geometry">
            <mxRectangle width="70" height="40" as="alternateBounds" />
          </mxGeometry>
        </mxCell>
        <mxCell id="FwuXOQPDWZtJsFWX8OQS-20" value="postName " style="shape=partialRectangle;html=1;whiteSpace=wrap;connectable=0;strokeColor=inherit;overflow=hidden;fillColor=none;top=0;left=0;bottom=0;right=0;pointerEvents=1;" vertex="1" parent="FwuXOQPDWZtJsFWX8OQS-19">
          <mxGeometry x="70" width="70" height="40" as="geometry">
            <mxRectangle width="70" height="40" as="alternateBounds" />
          </mxGeometry>
        </mxCell>
        <mxCell id="FwuXOQPDWZtJsFWX8OQS-21" value="P_conntent" style="shape=partialRectangle;html=1;whiteSpace=wrap;connectable=0;strokeColor=inherit;overflow=hidden;fillColor=none;top=0;left=0;bottom=0;right=0;pointerEvents=1;" vertex="1" parent="FwuXOQPDWZtJsFWX8OQS-19">
          <mxGeometry x="140" width="70" height="40" as="geometry">
            <mxRectangle width="70" height="40" as="alternateBounds" />
          </mxGeometry>
        </mxCell>
        <mxCell id="FwuXOQPDWZtJsFWX8OQS-22" value="&#xa;P_id&#xa;&#xa;" style="shape=partialRectangle;html=1;whiteSpace=wrap;connectable=0;strokeColor=inherit;overflow=hidden;fillColor=none;top=0;left=0;bottom=0;right=0;pointerEvents=1;" vertex="1" parent="FwuXOQPDWZtJsFWX8OQS-19">
          <mxGeometry x="210" width="70" height="40" as="geometry">
            <mxRectangle width="70" height="40" as="alternateBounds" />
          </mxGeometry>
        </mxCell>
        <mxCell id="FwuXOQPDWZtJsFWX8OQS-23" value="" style="shape=table;startSize=0;container=1;collapsible=0;childLayout=tableLayout;" vertex="1" parent="1">
          <mxGeometry x="-440" y="420" width="120" height="40" as="geometry" />
        </mxCell>
        <mxCell id="FwuXOQPDWZtJsFWX8OQS-24" value="" style="shape=tableRow;horizontal=0;startSize=0;swimlaneHead=0;swimlaneBody=0;strokeColor=inherit;top=0;left=0;bottom=0;right=0;collapsible=0;dropTarget=0;fillColor=none;points=[[0,0.5],[1,0.5]];portConstraint=eastwest;" vertex="1" parent="FwuXOQPDWZtJsFWX8OQS-23">
          <mxGeometry width="120" height="40" as="geometry" />
        </mxCell>
        <mxCell id="FwuXOQPDWZtJsFWX8OQS-35" value="&lt;u&gt;C_id&lt;/u&gt;" style="shape=partialRectangle;html=1;whiteSpace=wrap;connectable=0;strokeColor=inherit;overflow=hidden;fillColor=none;top=0;left=0;bottom=0;right=0;pointerEvents=1;" vertex="1" parent="FwuXOQPDWZtJsFWX8OQS-24">
          <mxGeometry width="60" height="40" as="geometry">
            <mxRectangle width="60" height="40" as="alternateBounds" />
          </mxGeometry>
        </mxCell>
        <mxCell id="FwuXOQPDWZtJsFWX8OQS-25" value="&#xa;P_id&#xa;&#xa;" style="shape=partialRectangle;html=1;whiteSpace=wrap;connectable=0;strokeColor=inherit;overflow=hidden;fillColor=none;top=0;left=0;bottom=0;right=0;pointerEvents=1;" vertex="1" parent="FwuXOQPDWZtJsFWX8OQS-24">
          <mxGeometry x="60" width="60" height="40" as="geometry">
            <mxRectangle width="60" height="40" as="alternateBounds" />
          </mxGeometry>
        </mxCell>
        <mxCell id="FwuXOQPDWZtJsFWX8OQS-26" style="edgeStyle=orthogonalEdgeStyle;rounded=0;orthogonalLoop=1;jettySize=auto;html=1;entryX=1;entryY=0.5;entryDx=0;entryDy=0;" edge="1" parent="1" target="FwuXOQPDWZtJsFWX8OQS-19">
          <mxGeometry relative="1" as="geometry">
            <mxPoint x="-360" y="461" as="sourcePoint" />
            <Array as="points">
              <mxPoint x="-350" y="461" />
              <mxPoint x="-350" y="520" />
            </Array>
          </mxGeometry>
        </mxCell>
        <mxCell id="FwuXOQPDWZtJsFWX8OQS-28" value="comment" style="whiteSpace=wrap;html=1;align=center;" vertex="1" parent="1">
          <mxGeometry x="470" y="280" width="100" height="40" as="geometry" />
        </mxCell>
        <mxCell id="FwuXOQPDWZtJsFWX8OQS-29" value="" style="shape=table;startSize=0;container=1;collapsible=0;childLayout=tableLayout;" vertex="1" parent="1">
          <mxGeometry x="-800" y="600" width="140" height="40" as="geometry" />
        </mxCell>
        <mxCell id="FwuXOQPDWZtJsFWX8OQS-30" value="" style="shape=tableRow;horizontal=0;startSize=0;swimlaneHead=0;swimlaneBody=0;strokeColor=inherit;top=0;left=0;bottom=0;right=0;collapsible=0;dropTarget=0;fillColor=none;points=[[0,0.5],[1,0.5]];portConstraint=eastwest;" vertex="1" parent="FwuXOQPDWZtJsFWX8OQS-29">
          <mxGeometry width="140" height="40" as="geometry" />
        </mxCell>
        <mxCell id="FwuXOQPDWZtJsFWX8OQS-31" value="C_content" style="shape=partialRectangle;html=1;whiteSpace=wrap;connectable=0;strokeColor=inherit;overflow=hidden;fillColor=none;top=0;left=0;bottom=0;right=0;pointerEvents=1;" vertex="1" parent="FwuXOQPDWZtJsFWX8OQS-30">
          <mxGeometry width="70" height="40" as="geometry">
            <mxRectangle width="70" height="40" as="alternateBounds" />
          </mxGeometry>
        </mxCell>
        <mxCell id="FwuXOQPDWZtJsFWX8OQS-32" value="&lt;u&gt;C_id&lt;/u&gt;" style="shape=partialRectangle;html=1;whiteSpace=wrap;connectable=0;strokeColor=inherit;overflow=hidden;fillColor=none;top=0;left=0;bottom=0;right=0;pointerEvents=1;" vertex="1" parent="FwuXOQPDWZtJsFWX8OQS-30">
          <mxGeometry x="70" width="70" height="40" as="geometry">
            <mxRectangle width="70" height="40" as="alternateBounds" />
          </mxGeometry>
        </mxCell>
        <mxCell id="FwuXOQPDWZtJsFWX8OQS-34" style="edgeStyle=orthogonalEdgeStyle;rounded=0;orthogonalLoop=1;jettySize=auto;html=1;entryX=0.148;entryY=1.158;entryDx=0;entryDy=0;entryPerimeter=0;" edge="1" parent="1" source="FwuXOQPDWZtJsFWX8OQS-30" target="FwuXOQPDWZtJsFWX8OQS-19">
          <mxGeometry relative="1" as="geometry">
            <Array as="points">
              <mxPoint x="-640" y="620" />
              <mxPoint x="-640" y="570" />
              <mxPoint x="-760" y="570" />
              <mxPoint x="-760" y="540" />
            </Array>
          </mxGeometry>
        </mxCell>
        <mxCell id="FwuXOQPDWZtJsFWX8OQS-36" style="edgeStyle=orthogonalEdgeStyle;rounded=0;orthogonalLoop=1;jettySize=auto;html=1;entryX=0.289;entryY=0.033;entryDx=0;entryDy=0;entryPerimeter=0;" edge="1" parent="1" source="FwuXOQPDWZtJsFWX8OQS-30" target="FwuXOQPDWZtJsFWX8OQS-24">
          <mxGeometry relative="1" as="geometry">
            <Array as="points">
              <mxPoint x="-700" y="670" />
              <mxPoint x="-820" y="670" />
              <mxPoint x="-820" y="390" />
              <mxPoint x="-405" y="390" />
            </Array>
          </mxGeometry>
        </mxCell>
      </root>
    </mxGraphModel>
  </diagram>
</mxfile>
